<mxfile modified="2020-07-13T11:38:04.207Z" host="app.diagrams.net" agent="5.0 (Macintosh; Intel Mac OS X 10_15_5) AppleWebKit/605.1.15 (KHTML, like Gecko) Version/13.1.1 Safari/605.1.15" etag="jMrHslChCNw0M-NkQweg" version="13.4.2" type="github">
  <diagram id="Ht1M8jgEwFfnCIfOTk4-" name="Page-1">
    <mxGraphModel dx="1355" dy="819" grid="1" gridSize="10" guides="1" tooltips="1" connect="1" arrows="1" fold="1" page="1" pageScale="1" pageWidth="1169" pageHeight="827" math="0" shadow="0">
      <root>
        <mxCell id="0" />
        <mxCell id="1" parent="0" />
        <mxCell id="TlfivpkIGYfdVW-dQc3R-20" value="VPC" style="outlineConnect=0;gradientColor=none;html=1;whiteSpace=wrap;fontSize=12;fontStyle=0;shape=mxgraph.aws4.group;grIcon=mxgraph.aws4.group_vpc;strokeColor=#879196;fillColor=none;verticalAlign=top;align=left;spacingLeft=30;fontColor=#879196;dashed=0;" vertex="1" parent="1">
          <mxGeometry x="410" y="320" width="470" height="220" as="geometry" />
        </mxCell>
        <mxCell id="UEzPUAAOIrF-is8g5C7q-109" value="data lake CLI" style="outlineConnect=0;gradientColor=none;fontColor=#545B64;strokeColor=none;fillColor=#879196;dashed=0;verticalLabelPosition=bottom;verticalAlign=top;align=center;html=1;fontSize=12;fontStyle=0;aspect=fixed;shape=mxgraph.aws4.illustration_desktop;pointerEvents=1;labelBackgroundColor=#ffffff;" parent="1" vertex="1">
          <mxGeometry x="40" y="390" width="100" height="91" as="geometry" />
        </mxCell>
        <mxCell id="UEzPUAAOIrF-is8g5C7q-111" value="Amazon &lt;br&gt;Cognito" style="outlineConnect=0;fontColor=#232F3E;gradientColor=#F54749;gradientDirection=north;fillColor=#C7131F;strokeColor=#ffffff;dashed=0;verticalLabelPosition=bottom;verticalAlign=top;align=center;html=1;fontSize=12;fontStyle=0;aspect=fixed;shape=mxgraph.aws4.resourceIcon;resIcon=mxgraph.aws4.cognito;labelBackgroundColor=#ffffff;" parent="1" vertex="1">
          <mxGeometry x="251" y="70" width="78" height="78" as="geometry" />
        </mxCell>
        <mxCell id="UEzPUAAOIrF-is8g5C7q-113" value="Lambda" style="outlineConnect=0;fontColor=#232F3E;gradientColor=#F78E04;gradientDirection=north;fillColor=#D05C17;strokeColor=#ffffff;dashed=0;verticalLabelPosition=bottom;verticalAlign=top;align=center;html=1;fontSize=12;fontStyle=0;aspect=fixed;shape=mxgraph.aws4.resourceIcon;resIcon=mxgraph.aws4.lambda;labelBackgroundColor=#ffffff;spacingTop=3;" parent="1" vertex="1">
          <mxGeometry x="460" y="390.5" width="78" height="78" as="geometry" />
        </mxCell>
        <mxCell id="UEzPUAAOIrF-is8g5C7q-116" value="Amazon S3" style="outlineConnect=0;fontColor=#232F3E;gradientColor=#60A337;gradientDirection=north;fillColor=#277116;strokeColor=#ffffff;dashed=0;verticalLabelPosition=bottom;verticalAlign=top;align=center;html=1;fontSize=12;fontStyle=0;aspect=fixed;shape=mxgraph.aws4.resourceIcon;resIcon=mxgraph.aws4.s3;labelBackgroundColor=#ffffff;" parent="1" vertex="1">
          <mxGeometry x="251.00000000000023" y="570" width="78" height="78" as="geometry" />
        </mxCell>
        <mxCell id="TlfivpkIGYfdVW-dQc3R-11" value="" style="edgeStyle=orthogonalEdgeStyle;html=1;endArrow=block;elbow=vertical;startArrow=block;startFill=1;endFill=1;strokeColor=#545B64;rounded=0;" edge="1" parent="1" source="TlfivpkIGYfdVW-dQc3R-26" target="UEzPUAAOIrF-is8g5C7q-113">
          <mxGeometry width="100" relative="1" as="geometry">
            <mxPoint x="330" y="435.5" as="sourcePoint" />
            <mxPoint x="460" y="436" as="targetPoint" />
          </mxGeometry>
        </mxCell>
        <mxCell id="TlfivpkIGYfdVW-dQc3R-16" value="" style="edgeStyle=orthogonalEdgeStyle;html=1;endArrow=block;elbow=vertical;startArrow=block;startFill=1;endFill=1;strokeColor=#545B64;rounded=0;" edge="1" parent="1" source="UEzPUAAOIrF-is8g5C7q-109">
          <mxGeometry width="100" relative="1" as="geometry">
            <mxPoint x="530" y="420" as="sourcePoint" />
            <mxPoint x="250" y="435.5" as="targetPoint" />
          </mxGeometry>
        </mxCell>
        <mxCell id="TlfivpkIGYfdVW-dQc3R-19" value="" style="edgeStyle=orthogonalEdgeStyle;html=1;endArrow=block;elbow=vertical;startArrow=block;startFill=1;endFill=1;strokeColor=#545B64;rounded=0;" edge="1" parent="1" source="UEzPUAAOIrF-is8g5C7q-109" target="UEzPUAAOIrF-is8g5C7q-111">
          <mxGeometry width="100" relative="1" as="geometry">
            <mxPoint x="550" y="420" as="sourcePoint" />
            <mxPoint x="90" y="170" as="targetPoint" />
            <Array as="points">
              <mxPoint x="120" y="109" />
            </Array>
          </mxGeometry>
        </mxCell>
        <mxCell id="TlfivpkIGYfdVW-dQc3R-22" value="" style="edgeStyle=orthogonalEdgeStyle;html=1;endArrow=block;elbow=vertical;startArrow=block;startFill=1;endFill=1;strokeColor=#545B64;rounded=0;" edge="1" parent="1" target="UEzPUAAOIrF-is8g5C7q-116">
          <mxGeometry width="100" relative="1" as="geometry">
            <mxPoint x="290" y="490.5" as="sourcePoint" />
            <mxPoint x="650" y="420" as="targetPoint" />
          </mxGeometry>
        </mxCell>
        <mxCell id="TlfivpkIGYfdVW-dQc3R-26" value="" style="outlineConnect=0;fontColor=#232F3E;gradientColor=#945DF2;gradientDirection=north;fillColor=#5A30B5;strokeColor=#ffffff;dashed=0;verticalLabelPosition=bottom;verticalAlign=top;align=center;html=1;fontSize=12;fontStyle=0;aspect=fixed;shape=mxgraph.aws4.resourceIcon;resIcon=mxgraph.aws4.cloudfront;" vertex="1" parent="1">
          <mxGeometry x="251" y="390" width="78" height="78" as="geometry" />
        </mxCell>
        <mxCell id="TlfivpkIGYfdVW-dQc3R-27" value="cloudfront" style="text;html=1;strokeColor=none;fillColor=none;align=center;verticalAlign=middle;whiteSpace=wrap;rounded=0;" vertex="1" parent="1">
          <mxGeometry x="270" y="468" width="40" height="20" as="geometry" />
        </mxCell>
        <mxCell id="TlfivpkIGYfdVW-dQc3R-30" value="" style="endArrow=classic;startArrow=classic;html=1;" edge="1" parent="1" target="TlfivpkIGYfdVW-dQc3R-24">
          <mxGeometry width="50" height="50" relative="1" as="geometry">
            <mxPoint x="538" y="434" as="sourcePoint" />
            <mxPoint x="620" y="400" as="targetPoint" />
          </mxGeometry>
        </mxCell>
        <mxCell id="TlfivpkIGYfdVW-dQc3R-35" value="" style="group" vertex="1" connectable="0" parent="1">
          <mxGeometry x="582.38" y="80" width="131.75" height="130" as="geometry" />
        </mxCell>
        <mxCell id="TlfivpkIGYfdVW-dQc3R-31" value="" style="outlineConnect=0;dashed=0;verticalLabelPosition=bottom;verticalAlign=top;align=center;html=1;shape=mxgraph.aws3.kms;fillColor=#759C3E;gradientColor=none;" vertex="1" parent="TlfivpkIGYfdVW-dQc3R-35">
          <mxGeometry x="27.620000000000005" width="76.5" height="93" as="geometry" />
        </mxCell>
        <mxCell id="TlfivpkIGYfdVW-dQc3R-34" value="Key Management Service" style="text;html=1;strokeColor=none;fillColor=none;align=center;verticalAlign=middle;whiteSpace=wrap;rounded=0;" vertex="1" parent="TlfivpkIGYfdVW-dQc3R-35">
          <mxGeometry y="100" width="131.75" height="30" as="geometry" />
        </mxCell>
        <mxCell id="TlfivpkIGYfdVW-dQc3R-36" value="" style="group" vertex="1" connectable="0" parent="1">
          <mxGeometry x="660" y="394.5" width="78" height="104" as="geometry" />
        </mxCell>
        <mxCell id="TlfivpkIGYfdVW-dQc3R-24" value="" style="outlineConnect=0;fontColor=#232F3E;gradientColor=#4D72F3;gradientDirection=north;fillColor=#3334B9;strokeColor=#ffffff;dashed=0;verticalLabelPosition=bottom;verticalAlign=top;align=center;html=1;fontSize=12;fontStyle=0;aspect=fixed;shape=mxgraph.aws4.resourceIcon;resIcon=mxgraph.aws4.aurora;" vertex="1" parent="TlfivpkIGYfdVW-dQc3R-36">
          <mxGeometry width="78" height="78" as="geometry" />
        </mxCell>
        <mxCell id="TlfivpkIGYfdVW-dQc3R-25" value="aurora" style="text;html=1;strokeColor=none;fillColor=none;align=center;verticalAlign=middle;whiteSpace=wrap;rounded=0;" vertex="1" parent="TlfivpkIGYfdVW-dQc3R-36">
          <mxGeometry x="19" y="84" width="40" height="20" as="geometry" />
        </mxCell>
      </root>
    </mxGraphModel>
  </diagram>
</mxfile>
